<svg width="100" height="42" viewBox="0 0 100 42" fill="none" xmlns="http://www.w3.org/2000/svg">
<path d="M59.256 12.2H62.376V29H59.256V12.2ZM73.8321 12.2C75.2881 12.2 76.5521 12.44 77.6241 12.92C78.7121 13.4 79.5441 14.088 80.1201 14.984C80.6961 15.88 80.9841 16.944 80.9841 18.176C80.9841 19.392 80.6961 20.456 80.1201 21.368C79.5441 22.264 78.7121 22.952 77.6241 23.432C76.5521 23.912 75.2881 24.152 73.8321 24.152H70.0401V29H66.9201V12.2H73.8321ZM73.6881 21.512C75.0481 21.512 76.0801 21.224 76.7841 20.648C77.4881 20.072 77.8401 19.248 77.8401 18.176C77.8401 17.104 77.4881 16.28 76.7841 15.704C76.0801 15.128 75.0481 14.84 73.6881 14.84H70.0401V21.512H73.6881ZM92.1101 29.24C90.4141 29.24 88.8781 28.872 87.5021 28.136C86.1421 27.384 85.0701 26.352 84.2861 25.04C83.5181 23.728 83.1341 22.248 83.1341 20.6C83.1341 18.952 83.5261 17.472 84.3101 16.16C85.0941 14.848 86.1661 13.824 87.5261 13.088C88.9021 12.336 90.4381 11.96 92.1341 11.96C93.5101 11.96 94.7661 12.2 95.9021 12.68C97.0381 13.16 97.9981 13.856 98.7821 14.768L96.7661 16.664C95.5501 15.352 94.0541 14.696 92.2781 14.696C91.1261 14.696 90.0941 14.952 89.1821 15.464C88.2701 15.96 87.5581 16.656 87.0461 17.552C86.5341 18.448 86.2781 19.464 86.2781 20.6C86.2781 21.736 86.5341 22.752 87.0461 23.648C87.5581 24.544 88.2701 25.248 89.1821 25.76C90.0941 26.256 91.1261 26.504 92.2781 26.504C94.0541 26.504 95.5501 25.84 96.7661 24.512L98.7821 26.432C97.9981 27.344 97.0301 28.04 95.8781 28.52C94.7421 29 93.4861 29.24 92.1101 29.24Z" fill="white"/>
<path fill-rule="evenodd" clip-rule="evenodd" d="M6.71429 1H35.2857C36.8012 1 38.2547 1.60204 39.3263 2.67368C40.398 3.74531 41 5.19876 41 6.71429V35.2857C41 36.8012 40.398 38.2547 39.3263 39.3263C38.2547 40.398 36.8012 41 35.2857 41H6.71429C5.19876 41 3.74531 40.398 2.67368 39.3263C1.60204 38.2547 1 36.8012 1 35.2857V6.71429C1 5.19876 1.60204 3.74531 2.67368 2.67368C3.74531 1.60204 5.19876 1 6.71429 1Z" stroke="white" stroke-width="2" stroke-linecap="round" stroke-linejoin="round"/>
<path d="M12.4286 32.2428V9.57141" stroke="#00A877" stroke-width="3" stroke-linecap="round" stroke-linejoin="round"/>
<path d="M21 32.3857V21" stroke="white" stroke-width="3" stroke-linecap="round" stroke-linejoin="round"/>
<path d="M29.5714 32.4286V15.2857" stroke="#00A877" stroke-width="3" stroke-linecap="round" stroke-linejoin="round"/>
</svg>
